<svg xmlns="http://www.w3.org/2000/svg" xmlns:xlink="http://www.w3.org/1999/xlink"
    viewBox="0,0,256,256" width="48px" height="48px" fill-rule="nonzero">
    <g fill="none" fill-rule="nonzero" stroke="none" stroke-width="1" stroke-linecap="butt"
        stroke-linejoin="miter" stroke-miterlimit="10" stroke-dasharray="" stroke-dashoffset="0"
        font-family="none" font-weight="none" font-size="none" text-anchor="none"
        style="mix-blend-mode: normal">
        <g transform="scale(5.33333,5.33333)">
            <path
                d="M30.6,44h-13.2c-2,0 -3.7,-1.4 -4,-3.4l-4.4,-29.6h30l-4.5,29.6c-0.3,2 -2,3.4 -3.9,3.4z"
                fill="#b39ddb"></path>
            <path d="M28,6h-8l-6,6h20z" fill="#9575cd"></path>
            <path d="M10,8h28c1.1,0 2,0.9 2,2v2h-32v-2c0,-1.1 0.9,-2 2,-2z" fill="#7e57c2"></path>
        </g>
    </g>
    <g fill="#f2f4f6" fill-rule="nonzero" stroke="none" stroke-width="1" stroke-linecap="butt"
        stroke-linejoin="miter" stroke-miterlimit="10" stroke-dasharray="" stroke-dashoffset="0"
        font-family="none" font-weight="none" font-size="none" text-anchor="none"
        style="mix-blend-mode: normal">
        <g id="text">
            <path
                d="M84.23,152.48167h-8.22v-26.54h8.17c2.33333,0 4.42,0.52667 6.26,1.58c1.84,1.05333 3.27667,2.54667 4.31,4.48c1.03333,1.94 1.55,4.14333 1.55,6.61v0v1.22c0,2.46667 -0.50667,4.66 -1.52,6.58c-1.02,1.92 -2.45333,3.41 -4.3,4.47c-1.84667,1.06 -3.93,1.59333 -6.25,1.6zM84.18,130.37167h-2.7v17.72h2.64c2.14,0 3.77667,-0.7 4.91,-2.1c1.12667,-1.39333 1.70333,-3.39 1.73,-5.99v0v-1.41c0,-2.69333 -0.56,-4.73667 -1.68,-6.13c-1.12,-1.39333 -2.75333,-2.09 -4.9,-2.09zM109,152.85167v0c-2.88667,0 -5.24,-0.88667 -7.06,-2.66c-1.81333,-1.78 -2.72,-4.14333 -2.72,-7.09v0v-0.52c0,-1.98 0.38,-3.75 1.14,-5.31c0.76667,-1.56 1.85333,-2.76333 3.26,-3.61c1.4,-0.84667 3,-1.27 4.8,-1.27v0c2.7,0 4.82333,0.85333 6.37,2.56c1.55333,1.7 2.33,4.11 2.33,7.23v0v2.15h-12.56c0.16667,1.29333 0.68,2.32667 1.54,3.1c0.85333,0.78 1.93667,1.17 3.25,1.17v0c2.03333,0 3.62,-0.73667 4.76,-2.21v0l2.59,2.9c-0.79333,1.12 -1.86333,1.99333 -3.21,2.62c-1.34667,0.62667 -2.84333,0.94 -4.49,0.94zM108.4,136.66167v0c-1.04,0 -1.88667,0.35333 -2.54,1.06c-0.65333,0.7 -1.07,1.70667 -1.25,3.02v0h7.33v-0.42c-0.02667,-1.16667 -0.34333,-2.06667 -0.95,-2.7c-0.60667,-0.64 -1.47,-0.96 -2.59,-0.96zM125.67,124.48167v28h-5.29v-28zM139.08,152.85167v0c-2.89333,0 -5.24667,-0.88667 -7.06,-2.66c-1.82,-1.78 -2.73,-4.14333 -2.73,-7.09v0v-0.52c0,-1.98 0.38333,-3.75 1.15,-5.31c0.76667,-1.56 1.85333,-2.76333 3.26,-3.61c1.4,-0.84667 3,-1.27 4.8,-1.27v0c2.7,0 4.82333,0.85333 6.37,2.56c1.54667,1.7 2.32,4.11 2.32,7.23v0v2.15h-12.56c0.17333,1.29333 0.69,2.32667 1.55,3.1c0.85333,0.78 1.93667,1.17 3.25,1.17v0c2.02667,0 3.61333,-0.73667 4.76,-2.21v0l2.59,2.9c-0.79333,1.12 -1.86333,1.99333 -3.21,2.62c-1.35333,0.62667 -2.85,0.94 -4.49,0.94zM138.48,136.66167v0c-1.04667,0 -1.89333,0.35333 -2.54,1.06c-0.65333,0.7 -1.07,1.70667 -1.25,3.02v0h7.33v-0.42c-0.02667,-1.16667 -0.34333,-2.06667 -0.95,-2.7c-0.60667,-0.64 -1.47,-0.96 -2.59,-0.96zM151.22,127.91167h5.27v4.85h3.37v3.86h-3.37v9.85c0,0.72667 0.14,1.25 0.42,1.57c0.28,0.31333 0.81667,0.47 1.61,0.47v0c0.58,0 1.09333,-0.04333 1.54,-0.13v0v3.99c-1.02667,0.32 -2.09,0.48 -3.19,0.48v0c-3.69333,0 -5.57667,-1.86667 -5.65,-5.6v0v-10.63h-2.88v-3.86h2.88zM171.88,152.85167v0c-2.89333,0 -5.25,-0.88667 -7.07,-2.66c-1.81333,-1.78 -2.72,-4.14333 -2.72,-7.09v0v-0.52c0,-1.98 0.38333,-3.75 1.15,-5.31c0.76,-1.56 1.84333,-2.76333 3.25,-3.61c1.40667,-0.84667 3.00667,-1.27 4.8,-1.27v0c2.7,0 4.82333,0.85333 6.37,2.56c1.55333,1.7 2.33,4.11 2.33,7.23v0v2.15h-12.56c0.16667,1.29333 0.68,2.32667 1.54,3.1c0.85333,0.78 1.93667,1.17 3.25,1.17v0c2.03333,0 3.62,-0.73667 4.76,-2.21v0l2.59,2.9c-0.79333,1.12 -1.86333,1.99333 -3.21,2.62c-1.34667,0.62667 -2.84,0.94 -4.48,0.94zM171.28,136.66167v0c-1.04667,0 -1.89667,0.35333 -2.55,1.06c-0.64667,0.7 -1.06333,1.70667 -1.25,3.02v0h7.33v-0.42c-0.02,-1.16667 -0.33667,-2.06667 -0.95,-2.7c-0.60667,-0.64 -1.46667,-0.96 -2.58,-0.96z"></path>
        </g>
    </g>
</svg>